<svg xmlns="http://www.w3.org/2000/svg" viewBox="0 0 114.28 112.82"><defs><style>.cls-1{fill:#fff;}</style></defs><title>LungMhee</title><g id="Layer_2" data-name="Layer 2"><g id="Layer_1-2" data-name="Layer 1"><path class="cls-1" d="M86.83,49.71a17.06,17.06,0,0,0-7.1-1.24c-3.85,0-8.17.8-11,2.71-3.74,2.51-4.15,6.6-1.26,12.5,1.82,3.72,6.42,5.64,9.92,5.85,3.3.19,7.51-1.47,10.48-4.15,2.64-2.39,3.86-7.19,4-7.69C92,53.23,90.22,51.44,86.83,49.71Z"/><path class="cls-1" d="M45.57,51.18c-5-3.36-14.54-3.29-18.11-1.47-3.41,1.74-5.21,3.53-5,8,0,0,1.21,5.15,4,7.64,3,2.68,7.17,4.34,10.48,4.15,3.5-.21,8.1-2.12,9.92-5.85C49.71,57.77,49.3,53.68,45.57,51.18Z"/><path class="cls-1" d="M100,43l9.5-17.7L99.41,9.72l-22,8.68L57.14,0,36.8,18.43l-22-8.71L4.66,25.34l9.57,17.82L0,98.86l29.63,14h25l0-6.16L42.9,110l-9.45-7.18,3.26-20.35L57.14,60.13h0L77.56,82.51l3.26,20.35L71.38,110l-11.77-3.39,0,6.16h25l29.63-14Zm-4.28-20.6,5.15,8L95.22,41,83,27.47Zm-82.44,8,5.15-8,12.72,5L19,41ZM98.9,50.62v3.85l-.62-.15a1.65,1.65,0,0,0-1.21.3,4.85,4.85,0,0,0-1.6,3.29c-.83,4.93-4.09,11.49-10.53,13.73s-11.88,1.67-16.51-1.78c-4.34-3.24-7.48-9.85-7.15-14.95H53c.33,5.09-2.81,11.71-7.15,14.95A15.14,15.14,0,0,1,36.56,73a22,22,0,0,1-7.22-1.34c-6.44-2.24-9.69-8.8-10.53-13.73a4.85,4.85,0,0,0-1.6-3.29,1.68,1.68,0,0,0-1.22-.3l-.61.13v-5l.84.79a.82.82,0,0,0,.31,0c.58,0,2.07-.26,5.22-2.16C27.14,44.86,36,44.26,41.4,45.57c4.65,1.12,7.81,2.66,9.67,4.72H63.22c1.86-2.05,5-3.6,9.67-4.72,5.42-1.3,14.25-.71,19.64,2.56,4.42,2.68,5.57,2.1,5.58,2.09l.84-.79Z"/><polygon class="cls-1" points="57.06 89.59 48.85 89.59 54.28 99.21 57.06 99.21 59.84 99.21 65.27 89.59 57.06 89.59"/></g></g></svg>